<svg width="25" height="25" viewBox="0 0 512 512" xmlns="http://www.w3.org/2000/svg" preserveAspectRatio="xMidYMid meet">
  <g transform="translate(0,512) scale(0.09,-0.09)" fill="#000000" stroke="none">
    <path d="M3960 5114 c-112 -22 -207 -73 -282 -152 -113 -118 -142 -214 -142
    -462 0 -196 10 -247 69 -357 l34 -61 -42 -28 c-62 -41 -154 -131 -202 -199
    -102 -143 -149 -282 -149 -443 -1 -101 0 -104 27 -128 49 -42 133 -24 155 33
    6 15 13 65 16 111 13 200 137 393 311 487 l52 29 51 -22 c108 -47 261 -47 383
    -2 l58 22 53 -29 c83 -44 197 -164 240 -253 67 -135 68 -145 68 -728 0 -567 0
    -572 -54 -608 -15 -9 -48 -21 -73 -25 -64 -12 -90 -32 -102 -76 -6 -21 -35
    -445 -66 -943 -30 -498 -60 -929 -66 -957 -12 -62 -53 -109 -103 -118 -18 -4
    -96 -5 -173 -3 -135 3 -143 4 -168 28 -63 59 -59 26 -110 880 -55 932 -66
    1092 -81 1128 -14 34 -62 62 -106 62 -30 0 -84 33 -98 61 -7 11 -16 48 -20 82
    -11 78 -41 112 -101 112 -34 0 -46 -6 -71 -34 -29 -33 -30 -37 -26 -105 8
    -126 84 -239 193 -287 36 -16 45 -25 49 -52 6 -32 17 -219 56 -892 33 -576 50
    -816 61 -884 19 -118 81 -208 181 -262 l63 -34 205 0 205 0 63 34 c104 56 163
    144 182 268 6 37 33 430 60 873 64 1036 52 925 105 949 62 28 130 94 162 160
    l28 56 3 554 c3 605 0 642 -54 777 -15 37 -43 95 -62 127 -42 73 -154 192
    -226 242 l-53 36 44 87 c54 108 68 199 60 387 -9 203 -49 314 -150 415 -96 96
    -199 139 -342 145 -49 2 -101 1 -115 -1z m238 -229 c65 -35 106 -81 141 -155
    25 -52 26 -63 26 -220 0 -195 -12 -242 -81 -319 -153 -170 -424 -128 -520 81
    -28 62 -29 66 -29 233 l0 170 33 67 c61 124 157 180 297 175 66 -3 90 -8 133
    -32z"/>
    <path d="M2281 4184 c-125 -33 -232 -117 -285 -223 -46 -89 -58 -168 -54 -341
    4 -164 19 -231 67 -298 l20 -28 -61 -45 c-118 -85 -218 -234 -260 -386 -20
    -72 -22 -107 -26 -489 -2 -270 0 -430 7 -469 20 -107 67 -175 157 -226 l51
    -29 7 -93 c3 -50 17 -256 31 -457 44 -646 56 -794 66 -844 22 -110 96 -198
    196 -236 79 -29 327 -29 406 0 75 28 130 79 167 154 36 73 32 37 96 938 l38
    538 55 32 c65 39 124 111 143 177 10 35 13 147 13 481 0 382 -3 444 -18 505
    -40 157 -148 323 -265 405 l-59 42 30 56 c44 81 57 149 57 302 0 150 -15 230
    -56 312 -91 179 -320 277 -523 222z m201 -196 c50 -15 122 -78 151 -132 18
    -35 22 -61 25 -178 5 -161 -9 -222 -62 -285 -50 -57 -113 -85 -196 -85 -118 0
    -213 69 -245 176 -19 64 -20 286 -1 339 49 137 188 207 328 165z m-232 -859
    c78 -31 222 -31 302 0 l58 22 50 -27 c63 -34 160 -134 193 -200 61 -120 62
    -131 62 -589 0 -477 2 -465 -79 -486 -22 -6 -52 -13 -65 -17 -56 -16 -56 -12
    -111 -792 -54 -779 -57 -798 -110 -825 -40 -21 -259 -21 -299 0 -59 30 -55 1
    -106 755 -44 652 -57 793 -72 823 -15 30 -38 42 -94 52 -44 7 -84 44 -93 86
    -10 50 -6 736 4 819 19 146 121 300 247 372 27 15 50 28 53 28 3 0 30 -10 60
    -21z"/>
    <path d="M769 3252 c-137 -46 -237 -157 -269 -302 -8 -35 -11 -112 -8 -210 3
    -152 4 -158 35 -220 l32 -64 -22 -14 c-55 -37 -164 -162 -200 -229 -71 -135
    -77 -181 -77 -568 0 -381 3 -399 66 -474 20 -23 56 -53 80 -67 24 -14 44 -31
    44 -38 0 -6 14 -131 30 -276 17 -146 37 -335 45 -420 18 -181 38 -235 112
    -300 68 -60 124 -73 296 -68 131 3 146 6 193 30 60 32 98 74 130 143 19 42 29
    110 63 450 50 489 46 462 74 469 38 9 106 75 135 130 l27 51 0 375 0 375 -28
    82 c-43 127 -149 271 -245 333 l-24 15 26 51 c37 73 45 124 46 269 0 244 -64
    371 -227 452 -71 35 -83 38 -177 40 -77 2 -114 -1 -157 -15z m236 -196 c42
    -18 102 -87 114 -133 14 -49 14 -247 0 -296 -23 -85 -111 -148 -208 -148 -96
    -1 -164 41 -201 123 -16 35 -20 66 -20 174 0 120 2 134 26 182 52 105 174 146
    289 98z m-95 -779 c62 0 99 6 138 21 l52 20 61 -41 c71 -46 137 -130 171
    -215 22 -55 23 -70 26 -381 2 -179 1 -335 -3 -348 -8 -34 -41 -63 -70 -63 -35
    0 -82 -25 -95 -51 -7 -11 -34 -232 -60 -491 -32 -300 -54 -476 -62 -487 -29
    -37 -43 -40 -161 -41 -111 0 -119 1 -142 24 -13 13 -26 39 -29 57 -5 33 -38
    341 -77 719 -10 102 -24 198 -31 214 -12 29 -59 56 -98 56 -12 0 -32 11 -45
    25 l-25 24 0 323 c0 181 5 342 11 367 25 109 123 242 213 288 39 20 39 20 90
    0 37 -14 75 -20 136 -20z"/>
    <path d="M3293 2994 c-85 -43 -56 -184 39 -184 42 0 83 25 98 59 35 85 -54
    167 -137 125z"/>
  </g>
</svg>
