<svg width="25" height="25" viewBox="0 0 512 512" xmlns="http://www.w3.org/2000/svg" preserveAspectRatio="xMidYMid meet">
  <g transform="translate(0,512) scale(0.09,-0.09)" fill="#000000" stroke="none">
    <path d="M145 4575 l-25 -24 0 -1991 0 -1991 25 -24 24 -25 2391 0 2391 0 24
25 0 1991 0 1991 -25 24 -24 25 -2391 0 -2391 0 -24 -25z m3415 -1305
l0 -390 -80 0 -80 0 0 390 0 390 80 0 80 0 0 -390z m640 0 l0 -390 -80 0 -80
0 0 390 0 390 80 0 80 0 0 -390z m-1280 10 l0 -80 -390 0 -390 0 0 80 0 80
390 0 390 0 0 -80z m0 -320 l0 -80 -390 0 -390 0 0 80 0 80 390 0 390 0 0 -80z
m-2160 -1410 l0 -390 -80 0 -80 0 0 390 0 390 80 0 80 0 0 -390z m640 0 l0
-390 -80 0 -80 0 0 390 0 390 80 0 80 0 0 -390z m640 0 l0 -390 -80 0 -80 0 0
390 0 390 80 0 80 0 0 -390z m2067 314 c3 -8 -353 -641 -374 -664 -5 -6 -111
51 -124 66 -6 7 58 127 182 342 l192 332 59 -33 c33 -17 62 -37 65 -43z m370
0 c3 -8 -352 -639 -374 -664 -5 -6 -111 51 -124 66 -6 7 56 123 182 343 l192
331 59 -33 c33 -17 62 -37 65 -43z"/>
  </g>
</svg>
