<svg width="25" height="25" viewBox="0 0 512 512" xmlns="http://www.w3.org/2000/svg" preserveAspectRatio="xMidYMid meet">
  <g transform="translate(0,512) scale(0.09,-0.09)" fill="#000000" stroke="none">
    <path d="M613 4821 c-172 -49 -315 -203 -358 -383 -22 -95 -22 -3608 0 -3713 44 -207 206 -376 412 -429 54 -14 244 -16 1727 -16 l1666 0 0 100 0 100 -1547 1 c-852 0 -1607 4 -1678 8 -121 7 -135 10 -193 41 -75 39 -125 93 -160 169 -22 46 -27 71 -27 141 0 77 3 92 33 152 40 81 110 148 190 180 l57 23 1662 3 1663 2 0 100 0 100 -1480 0 -1480 0 0 1720 0 1720 -212 -1 c-172 0 -225 -4 -275 -18z"/>
    <path d="M1201 4623 c-23 -28 -20 -59 7 -80 12 -10 114 -13 432 -13 391 0 418 1 433 18 24 26 21 68 -5 86 -19 14 -78 16 -434 16 l-413 0 -20 -27z"/>
    <path d="M4473 4344 c-60 -22 -127 -85 -152 -144 -16 -36 -23 -80 -28 -160 l-6 -110 278 0 278 0 -5 113 c-3 70 -11 126 -20 148 -22 51 -84 116 -132 141 -53 27 -156 33 -213 12z"/>
    <path d="M4300 2240 l0 -1310 270 0 270 0 0 1310 0 1310 -270 0 -270 0 0 -1310z"/>
    <path d="M1760 2900 c-13 -59 -13 -60 -68 -85 -31 -14 -71 -37 -89 -51 -33 -25 -35 -25 -80 -10 -26 9 -52 16 -59 16 -7 0 -39 -44 -70 -97 l-57 -97 44 -40 45 -41 -2 -103 -1 -103 -41 -42 -41 -42 55 -98 c61 -107 58 -105 141 -71 30 12 35 11 60 -10 16 -13 56 -37 90 -55 l62 -31 12 -60 12 -61 115 3 116 3 12 58 c6 32 13 59 15 60 2 1 34 17 70 35 37 18 74 41 84 52 16 18 18 18 76 -2 33 -11 61 -19 63 -17 1 2 28 48 59 101 l56 98 -43 36 -44 37 0 108 0 109 43 38 44 38 -56 95 c-30 52 -57 96 -59 98 -2 3 -29 -3 -60 -13 l-55 -17 -52 35 c-29 19 -70 43 -92 53 -36 17 -40 22 -50 73 l-10 55 -116 3 -116 3 -13 -61z m247 -253 c54 -28 103 -77 131 -131 36 -68 37 -177 3 -248 -77 -161 -296 -207 -431 -91 -63 55 -92 113 -98 197 -8 129 53 232 164 276 60 25 181 23 231 -3z"/>
    <path d="M1814 2546 c-45 -20 -81 -63 -93 -110 -26 -106 44 -205 152 -214 133 -10 225 123 167 242 -39 82 -141 119 -226 82z"/>
    <path d="M4470 523 c0 -15 93 -233 99 -233 5 0 69 148 97 223 6 15 -3 17 -95 17 -56 0 -101 -3 -101 -7z"/>
  </g>
</svg>
