<svg width="18" height="18" viewBox="0 0 512 512" xmlns="http://www.w3.org/2000/svg" preserveAspectRatio="xMidYMid meet">
  <g transform="translate(0,512) scale(0.09,-0.09)" fill="#000000" stroke="none">
<path d="M2449 4902 c-140 -47 -235 -157 -259 -303 -13 -81 -13 -594 0 -673
20 -123 102 -230 218 -284 49 -23 70 -27 152 -27 82 0 103 4 152 27 113 53
188 146 213 266 18 82 21 591 4 692 -21 129 -113 247 -229 291 -77 30 -180 34
-251 11z"/>
<path d="M1085 4316 c-115 -29 -197 -93 -248 -196 -41 -81 -53 -158 -37 -237
23 -111 48 -144 289 -384 243 -243 277 -268 393 -289 243 -45 473 185 428 428
-21 116 -46 150 -289 394 -238 238 -272 264 -379 287 -65 13 -92 13 -157 -3z"/>
<path d="M511 2929 c-119 -20 -238 -116 -283 -229 -31 -77 -31 -203 0 -280 46
-117 163 -208 292 -229 84 -14 586 -14 669 0 130 21 234 99 289 217 23 49 27
70 27 152 0 82 -4 103 -27 152 -54 115 -156 194 -282 217 -71 13 -606 13 -685
0z"/>
<path d="M3916 2930 c-112 -19 -222 -106 -274 -218 -23 -49 -27 -70 -27 -152
0 -82 4 -103 27 -152 53 -113 146 -188 266 -213 81 -18 591 -21 691 -5 149 25
263 125 305 269 30 102 14 210 -46 303 -57 91 -148 150 -259 168 -74 12 -611
12 -683 0z"/>
<path d="M1467 1920 c-95 -24 -138 -58 -379 -299 -213 -212 -240 -243 -269
-306 -29 -62 -33 -79 -33 -155 0 -119 28 -185 108 -266 92 -92 211 -129 332
-104 113 24 143 47 394 302 129 132 245 256 257 277 13 21 30 68 40 106 54
220 -110 438 -339 450 -40 3 -90 0 -111 -5z"/>
<path d="M3495 1906 c-194 -48 -318 -233 -285 -423 20 -118 43 -148 299 -405
284 -285 296 -293 456 -293 89 0 106 3 157 28 161 79 247 260 204 428 -9 35
-27 80 -39 100 -12 21 -125 143 -252 272 -247 251 -278 276 -390 296 -71 13
-85 13 -150 -3z"/>
<path d="M2453 1496 c-139 -45 -235 -156 -262 -301 -14 -75 -14 -589 -1 -674
58 -354 530 -438 698 -124 44 83 52 153 52 458 0 369 -12 430 -107 535 -66 74
-152 113 -256 117 -51 2 -98 -2 -124 -11z"/>
</g>
</svg>
