<svg width="18" height="18" viewBox="0 0 512 512" xmlns="http://www.w3.org/2000/svg" preserveAspectRatio="xMidYMid meet">
  <g transform="scale(0.035) translate(0, 512) scale(1, -1)" fill="#000000" stroke="none">
<path d="M652 1249 c-206 -102 -132 -412 98 -412 184 0 286 214 169 357 -62
74 -179 98 -267 55z m157 -145 c12 -15 21 -37 21 -49 0 -12 -9 -34 -21 -49
-16 -20 -29 -26 -59 -26 -30 0 -43 6 -59 26 -12 15 -21 37 -21 49 0 12 9 34
21 49 29 37 89 37 118 0z"/>
<path d="M1710 1247 c-157 -83 -157 -299 0 -386 139 -77 320 31 320 193 0 160
-179 268 -320 193z m159 -143 c12 -15 21 -37 21 -49 0 -12 -9 -34 -21 -49 -16
-20 -29 -26 -59 -26 -30 0 -43 6 -59 26 -12 15 -21 37 -21 49 0 12 9 34 21 49
29 37 89 37 118 0z"/>
<path d="M1240 1050 c-164 -31 -237 -232 -128 -356 135 -154 388 -62 388 141
0 135 -127 240 -260 215z m99 -166 c12 -15 21 -37 21 -49 0 -12 -9 -34 -21
-49 -16 -20 -29 -26 -59 -26 -30 0 -43 6 -59 26 -12 15 -21 37 -21 49 0 12 9
34 21 49 29 37 89 37 118 0z"/>
<path d="M163 436 c-59 -19 -99 -50 -130 -103 -60 -102 -24 -233 81 -298 l49
-30 1117 0 1117 0 49 30 c105 65 141 196 81 298 -32 54 -71 84 -134 103 -66
20 -2166 19 -2230 0z m1322 -161 c32 -31 32 -69 0 -100 l-24 -25 -632 0 -633
0 -23 22 c-30 28 -30 74 -1 105 l21 23 634 0 634 0 24 -25z m902 3 c30 -28 30
-74 1 -105 l-21 -23 -361 0 -361 0 0 75 0 75 359 0 c356 0 360 0 383 -22z"/>
</g>
</svg>
