<svg width="18" height="18" viewBox="0 0 512 512" xmlns="http://www.w3.org/2000/svg" preserveAspectRatio="xMidYMid meet">
  <g transform="scale(0.035) translate(0, 512) scale(1, -1)" fill="#000000" stroke="none">
<path d="M10 4144 c-7 -17 -9 -673 -8 -1851 3 -1793 3 -1825 22 -1839 17 -12
271 -14 1748 -14 1715 0 1728 0 1748 20 20 20 20 33 20 605 l0 585 791 795
c743 746 791 796 785 822 -12 50 -75 173 -126 247 -95 137 -243 266 -390 341
-97 49 -134 59 -162 44 -13 -6 -220 -208 -460 -447 l-438 -436 0 561 c0 309
-3 568 -6 577 -5 14 -38 16 -264 16 l-259 0 -3 -207 c-3 -226 -8 -246 -64
-271 -42 -20 -108 -15 -139 10 -49 38 -55 70 -55 278 l0 190 -425 0 -425 0 0
-195 c0 -218 -7 -253 -59 -279 -16 -9 -50 -16 -75 -16 -55 0 -101 35 -116 88
-5 20 -10 119 -10 220 l0 182 -425 0 -425 0 0 -195 c0 -218 -7 -253 -59 -279
-16 -9 -51 -16 -77 -16 -39 0 -51 5 -80 34 -33 33 -34 37 -34 108 0 41 -3 136
-7 211 l-6 137 -254 0 -253 0 -10 -26z m390 -232 c0 -97 5 -165 14 -194 54
-181 298 -237 435 -100 63 63 71 97 71 286 l0 156 295 0 295 0 0 -153 c0 -178
12 -229 69 -286 129 -129 353 -96 427 63 22 47 24 64 24 214 l0 162 295 0 295
0 0 -152 c0 -173 7 -210 53 -270 112 -147 365 -121 443 46 22 47 24 64 24 214
l0 162 130 0 130 0 0 -360 0 -360 -1630 0 -1630 0 0 360 0 360 130 0 130 0 0
-148z m4133 -173 c169 -86 322 -240 405 -405 l31 -61 -887 -886 -887 -887
-430 -189 c-236 -104 -431 -188 -432 -187 -2 1 82 195 186 430 l188 428 889
889 c489 489 890 889 892 889 1 0 22 -10 45 -21z m-1133 -697 l0 -167 -129
-129 -130 -129 -3 196 c-3 173 -5 198 -21 214 -17 17 -86 18 -1325 21 -719 1
-1317 0 -1329 -3 -56 -13 -53 41 -53 -924 0 -750 2 -890 14 -907 14 -19 36
-19 896 -22 l881 -2 -6 -21 c-4 -11 -22 -54 -41 -95 -19 -41 -34 -84 -34 -95
0 -25 43 -69 67 -69 10 1 257 106 548 234 527 231 530 233 598 296 l67 62 0
-461 0 -461 -1630 0 -1630 0 0 1315 0 1315 1630 0 1630 0 0 -168z m-2350 -347
l0 -215 -255 0 -255 0 0 208 c0 115 3 212 7 215 3 4 118 7 255 7 l248 0 0
-215z m650 0 l0 -215 -255 0 -255 0 0 215 0 215 255 0 255 0 0 -215z m650 0
l0 -215 -255 0 -255 0 0 215 0 215 255 0 255 0 0 -215z m650 0 l0 -215 -255 0
-255 0 0 215 0 215 255 0 255 0 0 -215z m-1950 -575 l0 -220 -249 0 -249 0 -4
213 c-2 116 -2 215 0 220 2 4 115 7 253 7 l249 0 0 -220z m650 0 l0 -220 -252
2 -253 3 -3 205 c-1 112 0 210 2 217 4 10 62 13 256 13 l250 0 0 -220z m648 3
l-3 -218 -250 0 -250 0 -3 218 -2 217 255 0 255 0 -2 -217z m376 75 c-131
-133 -142 -149 -175 -225 -19 -46 -38 -81 -44 -80 -6 2 -11 89 -13 225 l-2
222 187 0 187 0 -140 -142z m-1674 -653 l0 -215 -250 0 -250 0 0 215 0 215
250 0 250 0 0 -215z m650 0 l0 -215 -252 2 -253 3 -3 213 -2 212 255 0 255 0
0 -215z m650 96 c0 -118 -1 -121 -41 -215 l-41 -96 -214 0 -214 0 0 215 0 215
255 0 255 0 0 -119z"/>
</g>
</svg>
